# xmcd CD database file
#
# Track frame offsets:
#	150
#	11707
#	23030
#	40957
#	51495
#	60650
#
# Disc length: 1069 seconds
#
# Revision: 0
# Processed by: cddbd v1.4PL0 Copyright (c) Steve Scherf et al.
# Submitted via: CDex 1.50Beta7
#
DISCID=4b042b06
DTITLE=Marty Robbins - Memories In Song
DYEAR=1997
DGENRE=Country
TTITLE0=Up In The Air
TTITLE1=A White Sport Coat (And A Pink Carnation)
TTITLE2=Big Iron
TTITLE3=Unchained Melody
TTITLE4=Kingston Girl
TTITLE5=El Paso
EXTD=YEAR: 1997
EXTT0=
EXTT1=
EXTT2=
EXTT3=
EXTT4=
EXTT5=
PLAYORDER=
